<?xml version="1.0" encoding="UTF-8" standalone="no"?>
<svg
   xmlns:dc="http://purl.org/dc/elements/1.1/"
   xmlns:cc="http://creativecommons.org/ns#"
   xmlns:rdf="http://www.w3.org/1999/02/22-rdf-syntax-ns#"
   xmlns:svg="http://www.w3.org/2000/svg"
   xmlns="http://www.w3.org/2000/svg"
   viewBox="0 0 1133.3333 226.66667"
   height="226.66667"
   width="1133.3333"
   xml:space="preserve"
   id="svg2"
   version="1.1"><metadata
     id="metadata8"><rdf:RDF><cc:Work
         rdf:about=""><dc:format>image/svg+xml</dc:format><dc:type
           rdf:resource="http://purl.org/dc/dcmitype/StillImage" /></cc:Work></rdf:RDF></metadata><defs
     id="defs6"><clipPath
       id="clipPath18"
       clipPathUnits="userSpaceOnUse"><path
         id="path16"
         d="M 0,170 H 850 V 0 H 0 Z" /></clipPath></defs><g
     transform="matrix(1.3333333,0,0,-1.3333333,0,226.66667)"
     id="g10"><g
       id="g12"><g
         clip-path="url(#clipPath18)"
         id="g14"><g
           transform="translate(464.7275,24.7354)"
           id="g20"><path
             id="path22"
             style="fill:#f6c000;fill-opacity:1;fill-rule:nonzero;stroke:none"
             d="m 0,0 c 29.933,-15.377 73.071,-22.396 110.077,-20.817 51.867,2.213 98.301,18.789 133.219,44.577 2.743,2.024 0.22,4.527 -3.084,2.903 C 202.376,8.156 155.401,-4.019 106.699,-6.1 73.842,-7.502 37.641,-3.857 4.214,5.456 -0.827,6.859 -4.952,2.547 0,0" /></g><g
           transform="translate(40.1909,84.2324)"
           id="g24"><path
             id="path26"
             style="fill:#7c7b7b;fill-opacity:1;fill-rule:nonzero;stroke:none"
             d="M 0,0 -17.096,-46.422 H -36.493 L -19.397,0 c 4.719,12.811 13.486,23.752 26.298,32.823 12.809,9.067 25.91,13.6 39.291,13.6 13.385,0 23.149,-4.533 29.279,-13.6 C 81.604,23.752 82.31,12.811 77.59,0 L 60.495,-46.422 H 41.097 L 58.197,0 c 2.825,7.675 2.396,14.236 -1.286,19.684 -3.686,5.446 -9.535,8.169 -17.555,8.169 -8.017,0 -15.876,-2.723 -23.568,-8.169 C 8.089,14.236 2.827,7.675 0,0" /></g><g
           transform="translate(190.7676,65.6641)"
           id="g28"><path
             id="path30"
             style="fill:#7c7b7b;fill-opacity:1;fill-rule:nonzero;stroke:none"
             d="m 0,0 h 22.984 c -4.308,-5.202 -9.475,-9.938 -15.51,-14.208 -12.857,-9.096 -25.975,-13.648 -39.36,-13.648 -13.384,0 -23.145,4.536 -29.275,13.602 -6.137,9.068 -6.843,20.006 -2.123,32.822 4.72,12.811 13.483,23.753 26.296,32.821 12.808,9.067 25.909,13.603 39.294,13.603 13.384,0 23.141,-4.536 29.278,-13.603 6.133,-9.068 6.84,-20.01 2.12,-32.821 C 32.52,15.351 31.088,12.256 29.41,9.282 h -75.165 c 0.007,-3.837 1.06,-7.301 3.153,-10.398 3.684,-5.446 9.536,-8.172 17.552,-8.172 8.02,0 15.876,2.726 23.571,8.172 C -0.954,-0.746 -0.459,-0.37 0,0 m 16.17,27.854 c -0.006,3.835 -1.055,7.301 -3.15,10.398 -3.682,5.446 -9.535,8.169 -17.55,8.169 -8.021,0 -15.876,-2.723 -23.572,-8.169 -4.374,-3.097 -7.98,-6.563 -10.814,-10.398 z" /></g><g
           transform="translate(264.9448,167.7939)"
           id="g32"><path
             id="path34"
             style="fill:#7c7b7b;fill-opacity:1;fill-rule:nonzero;stroke:none"
             d="M 0,0 H 19.402 L 5.722,-37.138 h 29.096 l -6.84,-18.57 H -1.118 l -10.256,-27.854 c -2.83,-7.675 -2.4,-14.238 1.282,-19.684 3.686,-5.449 9.539,-8.168 17.554,-8.168 l -6.839,-18.569 c -13.385,0 -23.141,4.533 -29.274,13.599 -6.134,9.069 -6.841,20.01 -2.123,32.822 z" /></g><g
           transform="translate(338.5581,130.6558)"
           id="g36"><path
             id="path38"
             style="fill:#7c7b7b;fill-opacity:1;fill-rule:nonzero;stroke:none"
             d="M 0,0 H 67.895 L 61.056,-18.57 H -6.84 c -2.651,0 -5.266,-0.912 -7.848,-2.741 -2.579,-1.823 -4.334,-4.005 -5.27,-6.542 -0.933,-2.54 -0.784,-4.721 0.452,-6.547 1.234,-1.826 3.175,-2.74 5.827,-2.74 H 25.12 c 8.016,0 13.868,-2.723 17.55,-8.17 3.686,-5.447 4.112,-12.006 1.286,-19.682 C 41.13,-72.669 35.867,-79.231 28.171,-84.677 20.476,-90.123 12.62,-92.845 4.6,-92.845 h -67.891 l 6.839,18.565 H 11.44 c 2.651,0 5.266,0.913 7.849,2.741 2.578,1.827 4.334,4.008 5.27,6.547 0.936,2.539 0.783,4.721 -0.449,6.544 -1.238,1.827 -3.179,2.739 -5.831,2.739 h -38.795 c -8.019,0 -13.872,2.724 -17.554,8.17 -3.682,5.445 -4.112,12.01 -1.286,19.686 2.827,7.672 8.089,14.236 15.785,19.682 C -15.875,-2.724 -8.02,0 0,0" /></g><g
           transform="translate(399.0527,84.2324)"
           id="g40"><path
             id="path42"
             style="fill:#7c7b7b;fill-opacity:1;fill-rule:nonzero;stroke:none"
             d="m 0,0 c 4.716,12.811 13.476,23.752 26.288,32.823 12.813,9.067 25.928,13.6 39.313,13.6 13.38,0 23.123,-4.533 29.255,-13.6 6.137,-9.071 6.862,-20.012 2.142,-32.823 -4.72,-12.813 -13.501,-23.754 -26.313,-32.822 -12.813,-9.067 -25.895,-13.6 -39.28,-13.6 -11.057,0 -19.627,3.062 -25.709,9.193 l -17.063,-46.334 h -19.408 z m 38.245,-27.856 c 8.02,0 15.876,2.722 23.57,8.171 7.698,5.447 12.956,12.012 15.786,19.685 2.827,7.675 2.392,14.236 -1.286,19.684 -3.685,5.446 -9.535,8.169 -17.554,8.169 -8.017,0 -15.873,-2.723 -23.572,-8.169 C 27.494,14.236 22.23,7.675 19.408,0 c -2.826,-7.673 -2.4,-14.238 1.281,-19.685 3.687,-5.449 9.54,-8.171 17.556,-8.171" /></g><g
           transform="translate(568.9355,65.6641)"
           id="g44"><path
             id="path46"
             style="fill:#b2b2b2;fill-opacity:1;fill-rule:nonzero;stroke:none"
             d="M 0,0 H 22.985 C 18.68,-5.202 13.509,-9.938 7.474,-14.208 c -12.857,-9.096 -25.976,-13.648 -39.36,-13.648 -13.385,0 -23.127,4.536 -29.263,13.602 -6.13,9.068 -6.855,20.006 -2.135,32.822 4.72,12.811 13.497,23.753 26.31,32.821 12.813,9.067 25.895,13.603 39.284,13.603 13.38,0 23.159,-4.536 29.289,-13.603 6.133,-9.068 6.825,-20.01 2.104,-32.821 -1.182,-3.217 -2.614,-6.312 -4.29,-9.286 h -75.168 c 0.011,-3.837 1.061,-7.301 3.158,-10.398 3.682,-5.446 9.534,-8.172 17.551,-8.172 8.016,0 15.875,2.726 23.567,8.172 C -0.954,-0.746 -0.459,-0.37 0,0 m 16.178,27.854 c -0.014,3.835 -1.064,7.301 -3.157,10.398 -3.683,5.446 -9.532,8.169 -17.551,8.169 -8.02,0 -15.876,-2.723 -23.573,-8.169 -4.37,-3.097 -7.978,-6.563 -10.812,-10.398 z" /></g><g
           transform="translate(675.625,65.6641)"
           id="g48"><path
             id="path50"
             style="fill:#b2b2b2;fill-opacity:1;fill-rule:nonzero;stroke:none"
             d="m 0,0 h 22.982 c -4.305,-5.202 -9.476,-9.938 -15.51,-14.208 -12.854,-9.096 -25.973,-13.648 -39.362,-13.648 -13.381,0 -23.126,4.536 -29.259,13.602 -6.133,9.068 -6.855,20.006 -2.134,32.822 4.72,12.811 13.497,23.753 26.309,32.821 12.814,9.067 25.895,13.603 39.281,13.603 13.383,0 23.159,-4.536 29.292,-13.603 6.133,-9.068 6.825,-20.01 2.105,-32.821 -1.186,-3.217 -2.615,-6.312 -4.291,-9.286 h -75.168 c 0.012,-3.837 1.061,-7.301 3.154,-10.398 3.682,-5.446 9.536,-8.172 17.552,-8.172 8.02,0 15.871,2.726 23.571,8.172 C -0.953,-0.746 -0.458,-0.37 0,0 m 16.175,27.854 c -0.012,3.835 -1.064,7.301 -3.158,10.398 -3.682,5.446 -9.535,8.169 -17.546,8.169 -8.021,0 -15.88,-2.723 -23.575,-8.169 -4.372,-3.097 -7.981,-6.563 -10.815,-10.398 z" /></g><g
           transform="translate(815.9873,84.2324)"
           id="g52"><path
             id="path54"
             style="fill:#7c7b7b;fill-opacity:1;fill-rule:nonzero;stroke:none"
             d="m 0,0 c -4.721,-12.813 -13.486,-23.754 -26.301,-32.822 -12.811,-9.067 -25.909,-13.6 -39.297,-13.6 -13.381,0 -23.14,4.533 -29.274,13.6 -6.134,9.068 -6.839,20.009 -2.121,32.822 4.721,12.811 13.483,23.752 26.296,32.823 12.813,9.067 25.909,13.6 39.299,13.6 11.053,0 19.626,-3.064 25.709,-9.191 l 17.062,46.33 h 19.401 z m -38.238,27.853 c -8.022,0 -15.877,-2.723 -23.572,-8.169 C -69.501,14.236 -74.769,7.675 -77.595,0 c -2.827,-7.673 -2.396,-14.238 1.29,-19.685 3.678,-5.449 9.534,-8.171 17.547,-8.171 8.02,0 15.88,2.722 23.574,8.171 7.697,5.447 12.956,12.012 15.781,19.685 2.827,7.675 2.401,14.236 -1.285,19.684 -3.682,5.446 -9.534,8.169 -17.55,8.169" /></g></g></g></g></svg>