<?xml version="1.0" encoding="UTF-8" standalone="no"?>
<!-- Created with Inkscape (http://www.inkscape.org/) -->

<svg
   xmlns:dc="http://purl.org/dc/elements/1.1/"
   xmlns:cc="http://creativecommons.org/ns#"
   xmlns:rdf="http://www.w3.org/1999/02/22-rdf-syntax-ns#"
   xmlns:svg="http://www.w3.org/2000/svg"
   xmlns="http://www.w3.org/2000/svg"
   xmlns:sodipodi="http://sodipodi.sourceforge.net/DTD/sodipodi-0.dtd"
   xmlns:inkscape="http://www.inkscape.org/namespaces/inkscape"
   width="5cm"
   height="5cm"
   viewBox="0 0 50 49.999999"
   version="1.1"
   id="svg8"
   sodipodi:docname="FTTX.svg"
   inkscape:version="0.92.3 (2405546, 2018-03-11)">
  <defs
     id="defs2" />
  <sodipodi:namedview
     id="base"
     pagecolor="#ffffff"
     bordercolor="#666666"
     borderopacity="1.0"
     inkscape:pageopacity="0.0"
     inkscape:pageshadow="2"
     inkscape:zoom="2.8"
     inkscape:cx="78.061533"
     inkscape:cy="88.557439"
     inkscape:document-units="mm"
     inkscape:current-layer="layer1"
     showgrid="false"
     units="cm"
     inkscape:snap-global="true"
     inkscape:snap-bbox="true"
     inkscape:bbox-nodes="true"
     inkscape:bbox-paths="true"
     inkscape:snap-bbox-edge-midpoints="true"
     inkscape:snap-bbox-midpoints="true"
     inkscape:snap-center="true"
     inkscape:snap-object-midpoints="true"
     inkscape:window-width="1920"
     inkscape:window-height="1017"
     inkscape:window-x="-8"
     inkscape:window-y="760"
     inkscape:window-maximized="1" />
  <metadata
     id="metadata5">
    <rdf:RDF>
      <cc:Work
         rdf:about="">
        <dc:format>image/svg+xml</dc:format>
        <dc:type
           rdf:resource="http://purl.org/dc/dcmitype/StillImage" />
        <dc:title></dc:title>
      </cc:Work>
    </rdf:RDF>
  </metadata>
  <g
     inkscape:label="Layer 1"
     inkscape:groupmode="layer"
     id="layer1"
     transform="translate(0,-247.00002)">
    <path
       style="fill:#7c8400;fill-opacity:1;stroke-width:0.87523603"
       d="m 94.285156,48.619699 c -45.747767,2.62e-4 -82.833442,0.230189 -82.833984,45.89202 -5.42e-4,45.661831 37.085451,45.893711 82.833984,45.893981 45.749294,3.3e-4 82.836474,-0.23139 82.835934,-45.893981 -5.4e-4,-45.662591 -37.08741,-45.892355 -82.835934,-45.89202 z M 21.716797,69.578125 h 21.960937 v 9.980469 h -8.99414 v 9.455078 h 8.009765 V 98.5 h -8.009765 v 20.94531 H 21.716797 Z m 34.005859,0 h 28.335938 v 9.980469 H 76.359375 V 119.44531 H 63.390625 V 79.558594 h -7.667969 z m 40.164063,0 h 28.337891 v 9.980469 h -7.69922 V 119.44531 H 103.55664 V 79.558594 h -7.669921 z m 39.796871,0 h 12.53516 c 0.22589,1.375798 0.67784,3.665739 1.35547,6.869141 0.5339,2.44359 0.97513,4.681911 1.32422,6.714843 l 2.77344,-13.583984 h 10.87304 l -4.52734,22.054687 6.83789,27.812498 H 154.8418 c -1.43742,-4.96935 -2.75236,-11.01515 -3.94336,-18.14062 -0.32855,3.14177 -0.77855,6.47782 -1.35352,10.00976 l -1.23242,8.13086 h -12.62891 l 4.68164,-27.812498 z"
       transform="matrix(0.26458333,0,0,0.26458333,0,247.00002)"
       id="path3717"
       inkscape:connector-curvature="0"
       sodipodi:nodetypes="czczccccccccccccccccccccccccccccccccccccccccccccc" />
    <g
       aria-label="F T T X"
       style="font-style:normal;font-weight:normal;font-size:12.51783848px;line-height:1.25;font-family:sans-serif;letter-spacing:0px;word-spacing:0px;fill:#25652a;fill-opacity:1;stroke:none;stroke-width:0.31294593"
       id="text3715" />
  </g>
</svg>
