<?xml version="1.0" encoding="UTF-8" standalone="no"?>
<!-- Created with Inkscape (http://www.inkscape.org/) -->

<svg
   xmlns:dc="http://purl.org/dc/elements/1.1/"
   xmlns:cc="http://creativecommons.org/ns#"
   xmlns:rdf="http://www.w3.org/1999/02/22-rdf-syntax-ns#"
   xmlns:svg="http://www.w3.org/2000/svg"
   xmlns="http://www.w3.org/2000/svg"
   xmlns:sodipodi="http://sodipodi.sourceforge.net/DTD/sodipodi-0.dtd"
   xmlns:inkscape="http://www.inkscape.org/namespaces/inkscape"
   width="60mm"
   height="90mm"
   viewBox="0 0 60 90"
   version="1.1"
   id="svg8"
   inkscape:version="0.92.2 (5c3e80d, 2017-08-06)"
   sodipodi:docname="RadiusR.svg">
  <defs
     id="defs2" />
  <sodipodi:namedview
     id="base"
     pagecolor="#ffffff"
     bordercolor="#666666"
     borderopacity="1.0"
     inkscape:pageopacity="0.0"
     inkscape:pageshadow="2"
     inkscape:zoom="0.7"
     inkscape:cx="-205.94261"
     inkscape:cy="199.13806"
     inkscape:document-units="mm"
     inkscape:current-layer="svg8"
     showgrid="false"
     inkscape:pagecheckerboard="false"
     borderlayer="false"
     inkscape:snap-object-midpoints="true"
     inkscape:window-width="1920"
     inkscape:window-height="1017"
     inkscape:window-x="-8"
     inkscape:window-y="-8"
     inkscape:window-maximized="1" />
  <metadata
     id="metadata5">
    <rdf:RDF>
      <cc:Work
         rdf:about="">
        <dc:format>image/svg+xml</dc:format>
        <dc:type
           rdf:resource="http://purl.org/dc/dcmitype/StillImage" />
        <dc:title></dc:title>
      </cc:Work>
    </rdf:RDF>
  </metadata>
  <g
     inkscape:label="Layer 1"
     inkscape:groupmode="layer"
     id="layer1"
     transform="translate(0,-207)" />
  <g
     aria-label="R"
     style="font-style:normal;font-weight:normal;font-size:108.64096069px;line-height:1.25;font-family:sans-serif;letter-spacing:0px;word-spacing:0px;fill:#e3b80e;fill-opacity:1;stroke:none;stroke-width:2.71602416"
     id="text1465"
     transform="translate(4.2333335,2.6458334)">
    <path
       d="M 17.66938,45.718629 V 72.829742 H 0.58813529 L 0.52131791,22.336219 C 0.49164443,-0.08786353 0.278566,0.42011775 24.479042,0.42011775 c 5.870573,0 10.574104,0.68961545 14.110593,2.06884645 3.571855,1.343866 6.524824,3.8370912 8.858907,7.4796755 2.334083,3.6425843 3.501124,7.6918643 3.501124,12.1478413 0,8.699765 -4.19074,16.529169 -12.57222,20.313213 L 51.745377,72.829742 H 33.019664 L 21.879722,45.718629 Z M 13.436047,13.310622 v 18.460476 l 4.936277,2.505652 c 3.849157,1.95383 7.441723,-0.292274 9.375221,-0.876819 1.978464,-0.629512 3.732102,-1.978465 5.260916,-4.046859 1.528814,-2.113359 2.29322,-4.518992 2.29322,-7.216898 0,-2.56301 -0.764406,-4.856229 -2.29322,-6.879659 -1.528814,-2.023429 -3.192522,-3.259969 -4.991125,-3.70962 C 26.218732,11.052278 22.213382,8.3840445 17.90019,10.80497 Z"
       style="font-style:normal;font-variant:normal;font-weight:normal;font-stretch:normal;font-size:108.64096069px;font-family:'Franklin Gothic Demi';-inkscape-font-specification:'Franklin Gothic Demi, Normal';font-variant-ligatures:normal;font-variant-caps:normal;font-variant-numeric:normal;font-feature-settings:normal;text-align:start;writing-mode:lr-tb;text-anchor:start;fill:#e3b80e;fill-opacity:1;stroke-width:2.71602416"
       id="path1467"
       inkscape:connector-curvature="0"
       sodipodi:nodetypes="cccsscsscccccccsccsscsc" />
  </g>
  <g
     transform="matrix(0.13310909,0,0,0.13310909,10.837424,7.2727315)"
     id="Settings"
     style="fill:#000008;fill-opacity:1">
    <g
       id="g859"
       style="fill:#000008;fill-opacity:1">
      <path
         inkscape:connector-curvature="0"
         style="clip-rule:evenodd;fill:#000008;fill-opacity:1;fill-rule:evenodd"
         d="m 267.92,119.461 c -0.425,-3.778 -4.83,-6.617 -8.639,-6.617 -12.315,0 -23.243,-7.231 -27.826,-18.414 -4.682,-11.454 -1.663,-24.812 7.515,-33.231 2.889,-2.641 3.24,-7.062 0.817,-10.133 -6.303,-8.004 -13.467,-15.234 -21.289,-21.5 -3.063,-2.458 -7.557,-2.116 -10.213,0.825 -8.01,8.871 -22.398,12.168 -33.516,7.529 -11.57,-4.867 -18.866,-16.591 -18.152,-29.176 0.235,-3.953 -2.654,-7.39 -6.595,-7.849 -10.038,-1.161 -20.164,-1.197 -30.232,-0.08 -3.896,0.43 -6.785,3.786 -6.654,7.689 0.438,12.461 -6.946,23.98 -18.401,28.672 -10.985,4.487 -25.272,1.218 -33.266,-7.574 -2.642,-2.896 -7.063,-3.252 -10.141,-0.853 -8.054,6.319 -15.379,13.555 -21.74,21.493 -2.481,3.086 -2.116,7.559 0.802,10.214 9.353,8.47 12.373,21.944 7.514,33.53 -4.639,11.046 -16.109,18.165 -29.24,18.165 -4.261,-0.137 -7.296,2.723 -7.762,6.597 -1.182,10.096 -1.196,20.383 -0.058,30.561 0.422,3.794 4.961,6.608 8.812,6.608 11.702,-0.299 22.937,6.946 27.65,18.415 4.698,11.454 1.678,24.804 -7.514,33.23 -2.875,2.641 -3.24,7.055 -0.817,10.126 6.244,7.953 13.409,15.19 21.259,21.508 3.079,2.481 7.559,2.131 10.228,-0.81 8.04,-8.893 22.427,-12.184 33.501,-7.536 11.599,4.852 18.895,16.575 18.181,29.167 -0.233,3.955 2.67,7.398 6.595,7.85 5.135,0.599 10.301,0.898 15.481,0.898 4.917,0 9.835,-0.27 14.752,-0.817 3.897,-0.43 6.784,-3.786 6.653,-7.696 -0.451,-12.454 6.946,-23.973 18.386,-28.657 11.059,-4.517 25.286,-1.211 33.281,7.572 2.657,2.89 7.047,3.239 10.142,0.848 8.039,-6.304 15.349,-13.534 21.74,-21.494 2.48,-3.079 2.13,-7.559 -0.803,-10.213 -9.353,-8.47 -12.388,-21.946 -7.529,-33.524 4.568,-10.899 15.612,-18.217 27.491,-18.217 l 1.662,0.043 c 3.853,0.313 7.398,-2.655 7.865,-6.588 1.184,-10.105 1.198,-20.383 0.06,-30.561 z m -133.32462,93.91366 c -47.976523,0 -78.707665,-35.30466 -78.707665,-78.70766 0,-43.401243 32.292284,-78.707663 78.707665,-78.707663 47.97457,0 78.70591,35.30642 78.70591,78.707663 0,43.403 -28.84611,78.70766 -78.70591,78.70766 z"
         id="path857"
         sodipodi:nodetypes="csccccccccccccccccccccccccccccsccccccccccccsssss" />
    </g>
  </g>
</svg>
