<?xml version="1.0" encoding="iso-8859-1"?>
<!-- Generator: Adobe Illustrator 19.0.0, SVG Export Plug-In . SVG Version: 6.00 Build 0)  -->
<svg xmlns="http://www.w3.org/2000/svg" xmlns:xlink="http://www.w3.org/1999/xlink" version="1.1" id="Capa_1" x="0px" y="0px" viewBox="0 0 512 512" style="enable-background:new 0 0 512 512;" xml:space="preserve" width="512px" height="512px">
<g>
	<g>
		<path d="M256,155c-41.355,0-75,33.645-75,75c0,36.219,25.808,66.522,60,73.491V471c0,8.284,6.716,15,15,15s15-6.716,15-15V303.491    c34.192-6.968,60-37.271,60-73.491C331,188.645,297.355,155,256,155z M256,275c-24.813,0-45-20.187-45-45s20.187-45,45-45    s45,20.187,45,45S280.813,275,256,275z" fill="#980606"/>
	</g>
</g>
<g>
</g>
<g>
</g>
<g>
</g>
<g>
</g>
<g>
</g>
<g>
</g>
<g>
</g>
<g>
</g>
<g>
</g>
<g>
</g>
<g>
</g>
<g>
</g>
<g>
</g>
<g>
</g>
<g>
</g>
</svg>
