<?xml version="1.0" encoding="UTF-8" standalone="no"?>
<!-- Generator: Adobe Illustrator 16.0.0, SVG Export Plug-In . SVG Version: 6.00 Build 0)  -->

<svg
   xmlns:dc="http://purl.org/dc/elements/1.1/"
   xmlns:cc="http://creativecommons.org/ns#"
   xmlns:rdf="http://www.w3.org/1999/02/22-rdf-syntax-ns#"
   xmlns:svg="http://www.w3.org/2000/svg"
   xmlns="http://www.w3.org/2000/svg"
   xmlns:sodipodi="http://sodipodi.sourceforge.net/DTD/sodipodi-0.dtd"
   xmlns:inkscape="http://www.inkscape.org/namespaces/inkscape"
   version="1.1"
   id="Capa_1"
   x="0px"
   y="0px"
   width="512px"
   height="512px"
   viewBox="0 0 612 612"
   style="enable-background:new 0 0 612 612;"
   xml:space="preserve"
   sodipodi:docname="availability-item.svg"
   inkscape:version="0.92.2 (5c3e80d, 2017-08-06)"><metadata
     id="metadata42"><rdf:RDF><cc:Work
         rdf:about=""><dc:format>image/svg+xml</dc:format><dc:type
           rdf:resource="http://purl.org/dc/dcmitype/StillImage" /></cc:Work></rdf:RDF></metadata><defs
     id="defs40" /><sodipodi:namedview
     pagecolor="#ffffff"
     bordercolor="#666666"
     borderopacity="1"
     objecttolerance="10"
     gridtolerance="10"
     guidetolerance="10"
     inkscape:pageopacity="0"
     inkscape:pageshadow="2"
     inkscape:window-width="1920"
     inkscape:window-height="1017"
     id="namedview38"
     showgrid="false"
     inkscape:zoom="0.4609375"
     inkscape:cx="256"
     inkscape:cy="256"
     inkscape:window-x="-8"
     inkscape:window-y="-8"
     inkscape:window-maximized="1"
     inkscape:current-layer="Capa_1" /><g
     id="g5"
     transform="matrix(-1,0,0,1,612,0)"><g
       id="more"><path
         d="M 561,76.5 H 178.5 c -17.85,0 -30.6,10.2 -40.8,22.95 L 0,306 137.7,512.55 c 10.2,12.75 25.5,22.95 43.35,22.95 H 561 c 28.05,0 51,-22.95 51,-51 v -357 c 0,-28.05 -22.95,-51 -51,-51 z M 229.5,344.25 c -20.4,0 -38.25,-17.85 -38.25,-38.25 0,-20.4 17.85,-38.25 38.25,-38.25 20.4,0 38.25,17.85 38.25,38.25 0,20.4 -17.85,38.25 -38.25,38.25 z m 127.5,0 c -20.4,0 -38.25,-17.85 -38.25,-38.25 0,-20.4 17.85,-38.25 38.25,-38.25 20.4,0 38.25,17.85 38.25,38.25 0,20.4 -17.85,38.25 -38.25,38.25 z m 127.5,0 c -20.4,0 -38.25,-17.85 -38.25,-38.25 0,-20.4 17.85,-38.25 38.25,-38.25 20.4,0 38.25,17.85 38.25,38.25 0,20.4 -17.85,38.25 -38.25,38.25 z"
         id="path2"
         inkscape:connector-curvature="0"
         style="fill:#89b9f3" /></g></g><g
     id="g7" /><g
     id="g9" /><g
     id="g11" /><g
     id="g13" /><g
     id="g15" /><g
     id="g17" /><g
     id="g19" /><g
     id="g21" /><g
     id="g23" /><g
     id="g25" /><g
     id="g27" /><g
     id="g29" /><g
     id="g31" /><g
     id="g33" /><g
     id="g35" /></svg>