<?xml version="1.0" encoding="iso-8859-1"?>
<!-- Generator: Adobe Illustrator 19.0.0, SVG Export Plug-In . SVG Version: 6.00 Build 0)  -->
<svg xmlns="http://www.w3.org/2000/svg" xmlns:xlink="http://www.w3.org/1999/xlink" version="1.1" id="Layer_1" x="0px" y="0px" viewBox="0 0 513.265 513.265" style="enable-background:new 0 0 513.265 513.265;" xml:space="preserve" width="512px" height="512px">
<path d="M403.896,212.43V17.425H109.368V212.43H0l256.633,283.409L513.265,212.43H403.896z M293.494,297.21  c-6.095,6.685-13.535,11.136-22.148,13.256v18.302h-26.188V310.62c-19.088-4.842-33.291-20.087-37.537-40.683l-0.713-3.459  l24.007-14.529l1.792,6.304c5.507,19.374,12.669,26.923,25.546,26.923c6.836,0,11.734-2.014,15.418-6.336  c2.812-3.438,4.27-8.024,4.27-13.554c0-8.705-6.021-14.512-23.862-23.009c-11.859-5.39-17.482-8.829-24.99-15.296  c-8.384-7.45-12.262-16.546-12.262-28.678c0-18.495,11.458-34.105,28.332-39.3v-18.315h26.188v18.466  c11.398,3.332,20.325,11.229,26.574,23.528l2.039,4.013l-22.616,14.653l-2.608-4.646c-5.928-10.56-11.126-12.625-18.102-12.625  c-6.616,0-11.998,5.745-11.998,12.808c0,4.729,1.026,8.274,6.249,12.354l0.287,0.197c2.962,2.037,5.307,3.649,7.204,4.688  l10.88,5.643c8.007,4.002,12.204,6.182,19.334,11.581c11.377,8.474,16.517,18.444,17.154,33.318l0.005,0.214  C305.748,277.524,301.625,288.401,293.494,297.21z" fill="#85345e"/>















</svg>
