<?xml version="1.0" encoding="UTF-8" standalone="no"?>
<!-- Generator: Adobe Illustrator 19.0.0, SVG Export Plug-In . SVG Version: 6.00 Build 0)  -->

<svg
   xmlns:dc="http://purl.org/dc/elements/1.1/"
   xmlns:cc="http://creativecommons.org/ns#"
   xmlns:rdf="http://www.w3.org/1999/02/22-rdf-syntax-ns#"
   xmlns:svg="http://www.w3.org/2000/svg"
   xmlns="http://www.w3.org/2000/svg"
   xmlns:sodipodi="http://sodipodi.sourceforge.net/DTD/sodipodi-0.dtd"
   xmlns:inkscape="http://www.inkscape.org/namespaces/inkscape"
   version="1.1"
   id="Layer_1"
   x="0px"
   y="0px"
   viewBox="0 0 511.999 511.999"
   style="enable-background:new 0 0 511.999 511.999;"
   xml:space="preserve"
   width="512px"
   height="512px"
   sodipodi:docname="previous.svg"
   inkscape:version="0.92.2 (5c3e80d, 2017-08-06)"><metadata
     id="metadata51"><rdf:RDF><cc:Work
         rdf:about=""><dc:format>image/svg+xml</dc:format><dc:type
           rdf:resource="http://purl.org/dc/dcmitype/StillImage" /><dc:title></dc:title></cc:Work></rdf:RDF></metadata><defs
     id="defs49" /><sodipodi:namedview
     pagecolor="#ffffff"
     bordercolor="#666666"
     borderopacity="1"
     objecttolerance="10"
     gridtolerance="10"
     guidetolerance="10"
     inkscape:pageopacity="0"
     inkscape:pageshadow="2"
     inkscape:window-width="1920"
     inkscape:window-height="1017"
     id="namedview47"
     showgrid="false"
     inkscape:zoom="0.4609375"
     inkscape:cx="256"
     inkscape:cy="256"
     inkscape:window-x="-8"
     inkscape:window-y="-8"
     inkscape:window-maximized="1"
     inkscape:current-layer="Layer_1" /><g
     id="g14"
     transform="matrix(-1,0,0,1,511.999,0)"><g
       id="g12"><g
         id="g10"><path
           d="M 508.483,249.1 320.75,112.567 c -1.485,-1.084 -3.251,-1.63 -5.018,-1.63 -1.323,0 -2.645,0.307 -3.874,0.93 -2.859,1.451 -4.659,4.395 -4.659,7.603 v 85.333 h -93.867 c -4.719,0 -8.533,3.814 -8.533,8.533 v 85.333 c 0,4.71 3.814,8.533 8.533,8.533 h 93.867 v 85.333 c 0,3.208 1.801,6.144 4.659,7.595 2.85,1.459 6.289,1.186 8.892,-0.7 L 508.483,262.897 c 2.21,-1.604 3.516,-4.164 3.516,-6.895 0,-2.738 -1.305,-5.298 -3.516,-6.902 z"
           id="path2"
           inkscape:connector-curvature="0"
           style="fill:#32a87d" /><path
           d="m 162.133,204.8 c -14.114,0 -25.6,11.486 -25.6,25.6 v 51.2 c 0,14.114 11.486,25.6 25.6,25.6 14.114,0 25.6,-11.486 25.6,-25.6 v -51.2 c 0,-14.114 -11.486,-25.6 -25.6,-25.6 z"
           id="path4"
           inkscape:connector-curvature="0"
           style="fill:#32a87d" /><path
           d="m 93.867,204.8 c -14.114,0 -25.6,11.486 -25.6,25.6 v 51.2 c 0,14.114 11.486,25.6 25.6,25.6 14.114,0 25.6,-11.486 25.6,-25.6 v -51.2 c 0,-14.114 -11.486,-25.6 -25.6,-25.6 z"
           id="path6"
           inkscape:connector-curvature="0"
           style="fill:#32a87d" /><path
           d="M 25.6,204.8 C 11.486,204.8 0,216.286 0,230.4 v 51.2 c 0,14.114 11.486,25.6 25.6,25.6 14.114,0 25.6,-11.486 25.6,-25.6 v -51.2 c 0,-14.114 -11.486,-25.6 -25.6,-25.6 z"
           id="path8"
           inkscape:connector-curvature="0"
           style="fill:#32a87d" /></g></g></g><g
     id="g16" /><g
     id="g18" /><g
     id="g20" /><g
     id="g22" /><g
     id="g24" /><g
     id="g26" /><g
     id="g28" /><g
     id="g30" /><g
     id="g32" /><g
     id="g34" /><g
     id="g36" /><g
     id="g38" /><g
     id="g40" /><g
     id="g42" /><g
     id="g44" /></svg>