<?xml version="1.0" encoding="iso-8859-1"?>
<!-- Generator: Adobe Illustrator 19.0.0, SVG Export Plug-In . SVG Version: 6.00 Build 0)  -->
<svg version="1.1" id="Capa_1" xmlns="http://www.w3.org/2000/svg" xmlns:xlink="http://www.w3.org/1999/xlink" x="0px" y="0px"
	 viewBox="0 0 512 512" style="enable-background:new 0 0 512 512;" xml:space="preserve">
<g>
	<g>
		<path d="M152.53,92.492l-18.207-17.614c0.942-3.126,1.443-6.363,1.443-9.682c0-26.006-30.392-47.089-67.883-47.089
			C30.392,18.107,0,39.189,0,65.195c0,26.006,30.392,47.089,67.883,47.089c20.468,0,38.806-6.293,51.252-16.231l29.774,3.934
			C153.083,100.538,155.56,95.422,152.53,92.492z"/>
	</g>
</g>
<g>
	<g>
		<path d="M403.367,155.12l-10.933-16.437c7.364-7.53,11.668-16.616,11.668-26.4c0-26.006-30.392-47.089-67.883-47.089
			c-37.491,0-67.883,21.082-67.883,47.089c0,26.007,30.392,47.089,67.883,47.089c13.183,0,25.481-2.616,35.895-7.127l26.116,9.425
			C402.191,163.1,405.703,158.63,403.367,155.12z"/>
	</g>
</g>
<g>
	<g>
		<path d="M503.28,275.363H379.412c3.421-0.919,6.383-3.194,8.132-6.386l40.469-73.865c3.493-6.375,1.156-14.376-5.22-17.869
			c-6.375-3.493-14.375-1.156-17.869,5.219l-36.722,67.026h-65.583c1.624-4.001,1.97-8.553,0.657-13.018
			c-3.086-10.491-14.091-16.492-24.58-13.407l-67.524,19.86l-29.748-32.383l27.222,17.273c1.364-0.401,10.673-3.14,12.309-3.62
			l-9.637-6.884c3.022-17.693-8.63-32.125-24.008-34.754l-17.11-2.925c-34.403-5.88-66.586,18.823-69.755,53.619l-6.731,73.913
			l-15.992-126.28c-1.138-8.979-9.348-15.336-18.317-14.199c-8.98,1.137-15.336,9.338-14.199,18.317l23.039,181.937
			c1.037,8.19,8.004,14.329,16.259,14.329h60.595V452.2h-16.668c-2.898,0-5.677,1.15-7.726,3.2l-19.844,19.844
			c-4.267,4.267-4.267,11.185,0,15.451c4.267,4.266,11.185,4.267,15.451,0l16.644-16.644h44.718l16.644,16.644
			c2.133,2.133,4.929,3.2,7.726,3.2s5.592-1.066,7.726-3.2c4.267-4.267,4.267-11.185,0-15.451l-19.844-19.844
			c-2.049-2.049-4.827-3.2-7.726-3.2h-15.25v-70.933h48.758c9.645,0,17.274-8.315,16.306-18.03l8.253,2.13V337.33
			c-15.478,0-23.471-10.947-23.471-21.723c0-6.516,0-11.324,0-17.21c-4.19,1.232-3.436,1.01-9.526,2.802
			c-11.237,3.305-23.184-1.997-28.336-12.357l-24.49-49.142l35.906,39.089c5.12,5.574,12.951,7.725,20.167,5.6
			c8.443-2.484,5.066-1.49,21.774-6.404c-1.547,1.65-2.455,3.607-2.486,5.98c0,0.04-0.006,0.077-0.006,0.117v31.523
			c0,4.817,3.906,8.72,8.72,8.72c6.082,0,10.47,0,16.511,0v151.582c0,9.799,7.944,17.744,17.744,17.744
			c9.8,0,17.744-7.944,17.744-17.744v-151.58c6.625,0,153.7,0,160.763,0v151.582c0,9.799,7.944,17.744,17.744,17.744
			s17.744-7.944,17.744-17.744V324.327h16.512c4.846,0,8.72-3.943,8.72-8.72v-31.523C512,279.268,508.098,275.363,503.28,275.363z
			 M241.206,275.363c4.466-1.314,43.439-12.777,47.942-14.101c-0.7,6.651,3.624,12.488,9.715,14.101H241.206z"/>
	</g>
</g>
<g>
	<g>
		<path d="M285.936,187.259c-8.166-7.269-20.681-6.541-27.951,1.627l-29.434,33.073l45.852-13.487
			c5.826-1.713,11.743-1.839,17.287-0.634C293.879,200.67,291.902,192.568,285.936,187.259z"/>
	</g>
</g>
<g>
	<g>
		<path d="M328.498,461.984l-23.217-68.278v82.202c0,6.17-1.719,11.941-4.705,16.855c4.192,0.988,8.696,0.851,13.077-0.638
			C326.076,487.901,332.721,474.406,328.498,461.984z"/>
	</g>
</g>
<g>
	<g>
		<path d="M214.431,87.952c-24.073-1.708-44.974,16.422-46.683,40.495c-1.553,21.89,13.3,41.152,34.107,45.751
			c-2.652-2.86-4.253-6.638-4.333-10.659l-0.286-14.253c-5.115-4.223-8.381-10.61-8.381-17.745c0-12.685,10.32-23.005,23.005-23.005
			c12.685,0,23.005,10.32,23.005,23.005c0,6.779-2.949,12.881-7.63,17.095l0.11,5.493l16.022,7.126
			c6.544-7.046,10.825-16.282,11.559-26.62C256.635,110.561,238.505,89.66,214.431,87.952z"/>
	</g>
</g>
<g>
	<g>
		<path d="M242.232,171.697l-24.761-11.013l-0.346-17.263c3.89-1.725,6.766-5.298,7.527-9.607
			c1.429-8.097-4.81-15.278-12.792-15.278c-7.181,0-13.003,5.821-13.003,13.003c0,5.264,3.226,10.126,8.269,12.101l0.395,19.696
			c0.049,2.427,1.511,4.541,3.645,5.489c0.211,0.094,27.012,12.013,27.012,12.013C244.388,183.586,248.129,174.318,242.232,171.697z
			"/>
	</g>
</g>
<g>
</g>
<g>
</g>
<g>
</g>
<g>
</g>
<g>
</g>
<g>
</g>
<g>
</g>
<g>
</g>
<g>
</g>
<g>
</g>
<g>
</g>
<g>
</g>
<g>
</g>
<g>
</g>
<g>
</g>
</svg>
